<svg xmlns="http://www.w3.org/2000/svg" width="1200" height="800" viewBox="0 0 1200 800">
  <defs>
    <linearGradient id="g" x1="0" y1="0" x2="1" y2="1">
      <stop offset="0" stop-color="#66ffcc" stop-opacity="0.95" />
      <stop offset="0.55" stop-color="#336bff" stop-opacity="0.85" />
      <stop offset="1" stop-color="#0b0c10" stop-opacity="1" />
    </linearGradient>
    <radialGradient id="r" cx="25%" cy="30%" r="60%">
      <stop offset="0" stop-color="#ffffff" stop-opacity="0.30" />
      <stop offset="1" stop-color="#ffffff" stop-opacity="0" />
    </radialGradient>
  </defs>
  <rect width="1200" height="800" fill="url(#g)" />
  <rect width="1200" height="800" fill="url(#r)" />
  <g opacity="0.42" fill="#ffffff">
    <rect x="110" y="155" width="320" height="26" rx="13" />
    <rect x="110" y="210" width="520" height="18" rx="9" />
    <rect x="110" y="245" width="420" height="18" rx="9" />
  </g>
  <g opacity="0.9">
    <rect x="150" y="360" width="360" height="280" rx="26" fill="rgba(255,255,255,0.06)" stroke="rgba(255,255,255,0.18)" stroke-width="4"/>
    <rect x="190" y="410" width="160" height="18" rx="9" fill="rgba(255,255,255,0.30)" />
    <rect x="190" y="445" width="260" height="14" rx="7" fill="rgba(255,255,255,0.22)" />
    <rect x="190" y="475" width="240" height="14" rx="7" fill="rgba(255,255,255,0.18)" />
    <rect x="190" y="530" width="280" height="48" rx="16" fill="rgba(102,255,204,0.18)" stroke="rgba(102,255,204,0.40)" stroke-width="3"/>
  </g>
  <g opacity="0.9">
    <rect x="560" y="360" width="520" height="280" rx="26" fill="rgba(255,255,255,0.05)" stroke="rgba(255,255,255,0.18)" stroke-width="4"/>
    <path d="M640 520 C 720 420, 840 610, 940 450" stroke="rgba(255,255,255,0.55)" stroke-width="8" fill="none" stroke-linecap="round"/>
  </g>
  <text x="110" y="120" font-family="ui-sans-serif, system-ui, -apple-system, Segoe UI, Roboto, Arial" font-size="46" fill="rgba(255,255,255,0.85)" font-weight="850">
    Design System Starter
  </text>
</svg>

