<svg xmlns="http://www.w3.org/2000/svg" width="1200" height="800" viewBox="0 0 1200 800">
  <defs>
    <linearGradient id="g" x1="0" y1="1" x2="1" y2="0">
      <stop offset="0" stop-color="#66ffcc" stop-opacity="0.95" />
      <stop offset="0.55" stop-color="#7aa7ff" stop-opacity="0.88" />
      <stop offset="1" stop-color="#0b0c10" stop-opacity="1" />
    </linearGradient>
    <radialGradient id="r" cx="70%" cy="10%" r="70%">
      <stop offset="0" stop-color="#ffffff" stop-opacity="0.24" />
      <stop offset="1" stop-color="#ffffff" stop-opacity="0" />
    </radialGradient>
  </defs>
  <rect width="1200" height="800" fill="url(#g)" />
  <rect width="1200" height="800" fill="url(#r)" />
  <g opacity="0.35" fill="#ffffff">
    <rect x="120" y="160" width="430" height="28" rx="14" />
    <rect x="120" y="210" width="600" height="18" rx="9" />
    <rect x="120" y="245" width="520" height="18" rx="9" />
  </g>
  <g opacity="0.95" stroke="#ffffff" stroke-opacity="0.55" stroke-width="6" fill="none">
    <path d="M160 630 C 240 560, 300 560, 380 600 S 520 690, 610 630 S 760 510, 860 560 S 1040 670, 1120 560" />
    <path d="M160 520 C 250 450, 330 470, 410 510 S 560 610, 660 520 S 820 420, 900 450 S 1040 520, 1120 420" opacity="0.75"/>
  </g>
  <g>
    <rect x="760" y="260" width="320" height="200" rx="22" fill="rgba(255,255,255,0.06)" stroke="rgba(255,255,255,0.18)" stroke-width="4"/>
    <rect x="790" y="300" width="140" height="16" rx="8" fill="rgba(255,255,255,0.25)" />
    <rect x="790" y="330" width="220" height="14" rx="7" fill="rgba(255,255,255,0.18)" />
  </g>
  <text x="120" y="120" font-family="ui-sans-serif, system-ui, -apple-system, Segoe UI, Roboto, Arial" font-size="46" fill="rgba(255,255,255,0.85)" font-weight="850">
    Insight Map
  </text>
</svg>

