<svg xmlns="http://www.w3.org/2000/svg" width="1200" height="800" viewBox="0 0 1200 800">
  <defs>
    <linearGradient id="g" x1="0" y1="0" x2="1" y2="1">
      <stop offset="0" stop-color="#66ffcc" stop-opacity="0.95" />
      <stop offset="0.55" stop-color="#7aa7ff" stop-opacity="0.9" />
      <stop offset="1" stop-color="#0b0c10" stop-opacity="1" />
    </linearGradient>
    <radialGradient id="r" cx="25%" cy="20%" r="55%">
      <stop offset="0" stop-color="#ffffff" stop-opacity="0.35" />
      <stop offset="1" stop-color="#ffffff" stop-opacity="0" />
    </radialGradient>
  </defs>
  <rect width="1200" height="800" fill="url(#g)" />
  <rect width="1200" height="800" fill="url(#r)" />
  <g opacity="0.35" fill="#ffffff">
    <rect x="90" y="140" width="220" height="26" rx="13" />
    <rect x="90" y="190" width="360" height="18" rx="9" />
    <rect x="90" y="230" width="310" height="18" rx="9" />
    <rect x="90" y="270" width="240" height="18" rx="9" />
  </g>
  <g opacity="0.9" stroke="#ffffff" stroke-opacity="0.65" stroke-width="6" fill="none">
    <path d="M120 620 C 250 500, 300 690, 420 580 S 650 470, 770 560 S 980 640, 1080 520" />
  </g>
  <g>
    <rect x="900" y="160" width="210" height="140" rx="18" fill="rgba(255,255,255,0.08)" stroke="rgba(255,255,255,0.18)" />
    <rect x="930" y="200" width="150" height="14" rx="7" fill="rgba(255,255,255,0.35)" />
    <rect x="930" y="230" width="110" height="14" rx="7" fill="rgba(255,255,255,0.22)" />
  </g>
  <text x="120" y="120" font-family="ui-sans-serif, system-ui, -apple-system, Segoe UI, Roboto, Arial" font-size="46" fill="rgba(255,255,255,0.85)" font-weight="850">
    Pulse Dashboard
  </text>
</svg>

